:SAMPLES-PER-SECOND 30
:FULLY-SPECIFIED
:DEGREES
144
root  -72.175 40.8914 -4.69288 162.112 -82.5094 -165.29
RightUpLeg  -8.09914 -6.96125 0.11551
RightLeg  9.11352 -0.98291 5.75812
RightFoot  0.273752 -0.04802 0.488607
RightToes  0.00048216 0.542163 -0.142577
Spine  9.48548 -0.210184 10.994
Spine1  -4.68507 1.47486 -6.43566
HEad  -6.91407 0.38506 3.82178
LeftShoulder1  0.734264 -1.21544 -7.95456
LeftArm  -15.6056 14.79 -4.02584
LeftForeArm  9.58628 -8.7588 -2.84724
LeftHand  -0.25398 0.0180481 5.50724
RightShoulder  0.96487 1.45778 12.4098
RightArm  -19.7298 -7.68159 -0.460218
RightForeArm  -12.2471 8.6042 4.6605
RightHand  -1.68793 5.10665 -18.8777
LeftUpLeg  -7.22063 12.9491 4.2768
LeftLeg  33.4294 5.17856 4.02911
LeftFoot  -11.4439 0.063666 -7.11033
LeftToes  1.06246e-005 4.65856e-005 -8.18505e-006
145
root  -72.4294 41.0215 -4.88778 168.304 -82.8356 -171.347
RightUpLeg  -7.11948 -7.011 -0.675439
RightLeg  7.90113 -1.038 5.66686
RightFoot  -0.354539 -0.242511 2.4951
RightToes  0.00048216 0.542163 -0.142577
Spine  9.53315 0.183884 9.94809
Spine1  -5.21229 1.74858 -6.39938
HEad  -6.77698 -0.148378 3.89604
LeftShoulder1  0.60611 -0.908198 -5.91294
LeftArm  -16.0563 14.1914 -3.3916
LeftForeArm  9.72187 -8.48249 -2.67537
LeftHand  -0.25398 0.0180481 5.50724
RightShoulder  0.801006 1.02909 10.438
RightArm  -19.1967 -6.52414 -1.26083
RightForeArm  -11.9959 7.35846 4.64624
RightHand  -1.5467 4.30633 -18.7037
LeftUpLeg  -8.13805 13.4941 3.5396
LeftLeg  32.8572 5.6142 4.24146
LeftFoot  -12.9448 -0.00328843 -5.81331
LeftToes  1.06246e-005 4.65856e-005 -8.18505e-006
146
root  -72.6903 41.1412 -5.05213 173.951 -82.8644 -176.733
RightUpLeg  -6.2639 -7.20938 -1.29899
RightLeg  6.68295 -0.844278 5.6456
RightFoot  -0.934017 -0.383326 4.13408
RightToes  0.00048216 0.542163 -0.142577
Spine  9.31674 0.570236 9.2742
Spine1  -5.7342 2.04678 -6.55312
HEad  -6.67528 -0.181346 3.70418
LeftShoulder1  0.523268 -0.742319 -4.33183
LeftArm  -16.0982 13.9266 -2.73744
LeftForeArm  9.3142 -8.2619 -2.63814
LeftHand  -0.25398 0.0180481 5.50724
RightShoulder  0.671627 0.652588 8.74199
RightArm  -18.2415 -5.13605 -1.83048
RightForeArm  -11.8211 5.55237 4.73906
RightHand  -1.42525 3.72226 -18.3356
LeftUpLeg  -8.34056 14.4511 2.88529
LeftLeg  30.0876 7.11477 4.76806
LeftFoot  -14.3283 -0.0490453 -5.13909
LeftToes  1.06246e-005 4.65856e-005 -8.18505e-006
147
root  -72.9502 41.237 -5.17573 177.202 -82.5639 -179.74
RightUpLeg  -5.466 -7.27112 -1.59014
RightLeg  5.51616 -0.464819 5.64712
RightFoot  -1.33617 -0.449085 5.01838
RightToes  0.00048216 0.542163 -0.142577
Spine  8.93349 0.975192 9.414
Spine1  -6.10862 2.48029 -7.28642
HEad  -6.16861 -0.31907 3.51359
LeftShoulder1  0.464203 -0.637841 -3.05691
LeftArm  -16.1954 13.6811 -2.1624
LeftForeArm  9.1534 -7.85684 -2.54298
LeftHand  -0.25398 0.0180481 5.50724
RightShoulder  0.569367 0.295577 7.4424
RightArm  -17.2168 -3.65094 -2.37991
RightForeArm  -11.6757 3.30592 4.87389
RightHand  -1.44709 4.009 -18.067
LeftUpLeg  -7.77061 16.6255 2.55317
LeftLeg  25.1854 8.10385 4.53387
LeftFoot  -14.0465 -0.0379546 -5.22619
LeftToes  1.06246e-005 4.65856e-005 -8.18505e-006
148
root  -73.1983 41.311 -5.25765 177.973 -82.0136 179.56
RightUpLeg  -4.58393 -7.1613 -1.61487
RightLeg  4.37883 -0.00575423 5.67791
RightFoot  -1.31782 -0.47875 5.3513
RightToes  0.00048216 0.542163 -0.142577
Spine  8.60747 1.31762 10.1937
Spine1  -6.3278 2.96359 -8.58556
HEad  -5.52601 -0.387715 3.37981
LeftShoulder1  0.377296 -0.285714 -1.65819
LeftArm  -16.6096 13.4173 -2.04368
LeftForeArm  9.70945 -7.10047 -2.2732
LeftHand  -0.25398 0.0180481 5.50724
RightShoulder  0.51871 0.102664 6.74801
RightArm  -16.9451 -2.29236 -2.96465
RightForeArm  -11.9222 1.29083 4.8728
RightHand  -1.55635 4.62254 -18.2528
LeftUpLeg  -6.42861 19.6009 2.54808
LeftLeg  18.9581 7.79609 3.02732
LeftFoot  -11.3736 0.0596285 -4.16944
LeftToes  1.06246e-005 4.65856e-005 -8.18505e-006
149
root  -73.4253 41.361 -5.31054 177.394 -81.6161 -179.898
RightUpLeg  -3.80096 -7.0415 -1.54644
RightLeg  3.60407 0.270821 5.75205
RightFoot  -1.16126 -0.495568 5.46999
RightToes  0.00048216 0.542163 -0.142577
Spine  8.31094 1.55758 10.7105
Spine1  -6.34135 3.24788 -9.08608
HEad  -4.85151 -0.366936 2.88053
LeftShoulder1  0.32768 0.0998991 -1.27162
LeftArm  -16.8088 13.1985 -1.65078
LeftForeArm  10.0116 -6.1302 -2.03256
LeftHand  -0.25398 0.0180481 5.50724
RightShoulder  0.465044 -0.0617436 5.77786
RightArm  -17.8312 -1.23186 -2.94244
RightForeArm  -12.2752 0.0430071 4.58729
RightHand  -1.61848 4.80779 -18.6307
LeftUpLeg  -4.89623 18.7285 2.99163
LeftLeg  13.9233 9.89762 1.00774
LeftFoot  -7.67895 0.0888641 -1.38829
LeftToes  1.06246e-005 4.65856e-005 -8.18505e-006
150
root  -73.6205 41.4048 -5.36793 177.598 -81.8628 179.951
RightUpLeg  -3.3239 -7.01948 -1.59674
RightLeg  3.25661 0.0913429 5.77583
RightFoot  -1.2326 -0.487661 5.41312
RightToes  0.00048216 0.542163 -0.142577
Spine  7.86734 1.54118 10.4104
Spine1  -6.23659 3.139 -8.79724
HEad  -4.307 -0.443475 2.50918
LeftShoulder1  0.303587 0.340552 -1.22695
LeftArm  -16.5202 13.3244 -1.44128
LeftForeArm  9.39698 -5.29926 -1.99756
LeftHand  -0.25398 0.0180481 5.50724
RightShoulder  0.463742 -0.0329019 5.60341
RightArm  -18.6187 -0.273855 -3.17317
RightForeArm  -12.83 -0.871598 4.3713
RightHand  -1.624 4.74063 -18.809
LeftUpLeg  -4.11429 13.8915 3.18032
LeftLeg  11.7614 14.459 -0.0423804
LeftFoot  -5.49636 -0.0145696 1.02988
LeftToes  1.06246e-005 4.65856e-005 -8.18505e-006
151
root  -73.7808 41.4516 -5.44798 179.496 -82.7464 178.216
RightUpLeg  -3.08131 -7.05638 -1.77868
RightLeg  3.09359 -0.565053 5.65778
RightFoot  -1.49341 -0.454785 5.15594
RightToes  0.00048216 0.542163 -0.142577
Spine  7.33908 1.41609 9.5155
Spine1  -6.18988 2.84916 -8.16383
HEad  -3.81564 -0.928199 2.49068
LeftShoulder1  0.333107 0.109469 -1.47677
LeftArm  -16.1108 13.4743 -1.43315
LeftForeArm  8.09318 -4.47801 -2.04906
LeftHand  -0.25398 0.0180481 5.50724
RightShoulder  0.475631 -0.0323731 5.98882
RightArm  -18.8414 0.0855125 -3.36152
RightForeArm  -12.7678 -1.50286 4.25895
RightHand  -1.57952 4.57366 -18.6006
LeftUpLeg  -3.98386 11.6506 2.70317
LeftLeg  11.4514 15.5914 0.275883
LeftFoot  -5.4389 -0.036664 1.3397
LeftToes  1.06246e-005 4.65856e-005 -8.18505e-006
152
root  -73.9197 41.4991 -5.52857 -177.712 -83.6736 175.525
RightUpLeg  -2.75797 -7.06533 -1.97071
RightLeg  2.80374 -1.34104 5.46345
RightFoot  -1.65568 -0.426116 4.89235
RightToes  0.00048216 0.542163 -0.142577
Spine  6.90838 1.38288 8.82881
Spine1  -6.18238 2.73038 -7.94397
HEad  -3.6286 -1.42268 2.65879
LeftShoulder1  0.379084 -0.235343 -1.85369
LeftArm  -16.1164 13.0801 -1.77226
LeftForeArm  6.65453 -3.39589 -2.00627
LeftHand  -0.25398 0.0180481 5.50724
RightShoulder  0.477393 -0.140514 6.54003
RightArm  -18.6519 -0.203549 -3.28281
RightForeArm  -10.7328 -2.05871 4.07989
RightHand  -1.50616 4.5388 -17.828
LeftUpLeg  -3.47278 10.0794 2.49427
LeftLeg  10.6513 16.0068 0.0220186
LeftFoot  -5.81108 0.0127199 0.468507
LeftToes  1.06246e-005 4.65856e-005 -8.18505e-006
153
root  -74.0552 41.5418 -5.57611 -175.711 -84.1614 173.5
RightUpLeg  -2.26442 -7.04982 -2.1048
RightLeg  2.38004 -1.80121 5.34505
RightFoot  -1.67353 -0.412005 4.73608
RightToes  0.00048216 0.542163 -0.142577
Spine  6.64063 1.53083 8.63563
Spine1  -6.1766 2.86382 -8.04104
HEad  -4.47862 -0.828941 2.17749
LeftShoulder1  0.410802 -0.291878 -2.63232
LeftArm  -16.3581 12.1922 -2.16508
LeftForeArm  5.45933 -2.31882 -1.93928
LeftHand  -0.25398 0.0180481 5.50724
RightShoulder  0.46112 -0.263313 6.57952
RightArm  -18.2649 -0.699826 -2.7983
RightForeArm  -6.93671 -2.73218 3.81804
RightHand  -1.456 4.92567 -16.6456
LeftUpLeg  -2.56185 8.55255 2.65551
LeftLeg  9.11408 16.9048 -0.985895
LeftFoot  -5.53071 0.0291213 0.0798341
LeftToes  1.06246e-005 4.65856e-005 -8.18505e-006
154
root  -74.1856 41.5724 -5.58984 -174.785 -84.362 172.592
RightUpLeg  -1.9056 -7.06339 -2.19332
RightLeg  2.09819 -1.94313 5.33308
RightFoot  -1.69336 -0.393535 4.5395
RightToes  0.00048216 0.542163 -0.142577
Spine  6.37621 1.695 8.59527
Spine1  -6.16056 3.00344 -8.04267
HEad  -6.64644 1.01575 0.806447
LeftShoulder1  0.42761 -0.149675 -3.60821
LeftArm  -16.3632 11.6129 -2.44442
LeftForeArm  4.78936 -1.78622 -1.98214
LeftHand  -0.25398 0.0180481 5.50724
RightShoulder  0.46523 -0.190472 6.3692
RightArm  -17.8891 -1.04373 -2.30503
RightForeArm  -3.82915 -3.23956 3.64258
RightHand  -1.42697 5.37827 -15.6672
LeftUpLeg  -1.90967 7.46191 2.76438
LeftLeg  8.04642 17.8216 -1.68795
LeftFoot  -5.16882 0.0138157 0.316346
LeftToes  1.06246e-005 4.65856e-005 -8.18505e-006
155
root  -74.2889 41.5918 -5.59851 -173.401 -84.6787 171.385
RightUpLeg  -1.85805 -7.07689 -2.2687
RightLeg  2.00586 -2.14821 5.31948
RightFoot  -1.69399 -0.374721 4.296
RightToes  0.00048216 0.542163 -0.142577
Spine  5.98428 1.72948 8.33166
Spine1  -6.00497 2.97828 -7.80169
HEad  -9.13149 2.69452 -0.653453
LeftShoulder1  0.469505 -0.225352 -4.59561
LeftArm  -16.1954 11.6753 -2.47464
LeftForeArm  4.67961 -1.65456 -2.02716
LeftHand  -0.25398 0.0180481 5.50724
RightShoulder  0.481388 -0.0725556 6.35441
RightArm  -17.818 -1.23662 -1.97654
RightForeArm  -3.21614 -3.13889 3.61189
RightHand  -1.35208 5.07572 -15.2841
LeftUpLeg  -1.74109 6.90126 2.65704
LeftLeg  7.65218 18.1481 -1.8309
LeftFoot  -5.22369 0.00538308 0.447398
LeftToes  1.06246e-005 4.65856e-005 -8.18505e-006
156
root  -74.3534 41.6021 -5.61238 -171.451 -85.1658 169.62
RightUpLeg  -1.911 -7.03225 -2.31112
RightLeg  1.9653 -2.59277 5.23459
RightFoot  -1.66018 -0.37492 4.27025
RightToes  0.00048216 0.542163 -0.142577
Spine  5.70297 1.64711 8.0914
Spine1  -5.82045 2.88867 -7.83511
HEad  -10.312 3.14246 -1.07454
LeftShoulder1  0.538292 -0.607696 -5.17851
LeftArm  -16.177 12.0141 -2.48694
LeftForeArm  4.72146 -1.33246 -1.93214
LeftHand  -0.25398 0.0180481 5.50724
RightShoulder  0.511187 0.0135843 6.92175
RightArm  -17.7764 -1.43775 -2.0408
RightForeArm  -4.78114 -2.59863 3.75242
RightHand  -1.26801 4.20093 -15.6055
LeftUpLeg  -1.70554 6.59417 2.54937
LeftLeg  7.26759 17.9526 -1.98154
LeftFoot  -5.29777 0.0100304 0.375173
LeftToes  1.06246e-005 4.65856e-005 -8.18505e-006
157
root  -74.394 41.6076 -5.61288 -170.416 -85.5756 168.598
RightUpLeg  -1.80889 -6.96175 -2.30854
RightLeg  1.91975 -3.04907 5.1364
RightFoot  -1.71713 -0.387035 4.45694
RightToes  0.00048216 0.542163 -0.142577
Spine  5.75254 1.57786 8.07657
Spine1  -5.71079 2.86851 -8.1052
HEad  -10.251 2.87292 -0.748699
LeftShoulder1  0.591394 -0.89587 -5.57994
LeftArm  -16.1735 12.1095 -2.52931
LeftForeArm  4.32383 -0.789542 -1.85221
LeftHand  -0.25398 0.0180481 5.50724
RightShoulder  0.541202 0.0780191 7.5686
RightArm  -17.3426 -1.60408 -2.31092
RightForeArm  -7.56146 -2.19623 4.09674
RightHand  -1.30943 3.83919 -16.6803
LeftUpLeg  -1.52897 6.41814 2.57836
LeftLeg  6.81656 17.6674 -2.26908
LeftFoot  -5.14044 0.00883138 0.393807
LeftToes  1.06246e-005 4.65856e-005 -8.18505e-006
158
root  -74.4316 41.6132 -5.59134 -170.972 -85.8033 169.06
RightUpLeg  -1.62834 -6.94192 -2.27846
RightLeg  1.93357 -3.30912 5.11374
RightFoot  -1.89393 -0.378491 4.4201
RightToes  0.00048216 0.542163 -0.142577
Spine  6.01336 1.58054 8.0866
Spine1  -5.72177 2.88799 -8.10164
HEad  -10.0981 2.7778 -0.626324
LeftShoulder1  0.614383 -0.906694 -6.12446
LeftArm  -15.9189 12.0459 -2.49883
LeftForeArm  3.62553 -0.531494 -1.95421
LeftHand  -0.25398 0.0180481 5.50724
RightShoulder  0.555987 0.164864 7.62187
RightArm  -17.1338 -1.73759 -2.44949
RightForeArm  -7.98525 -2.29551 4.16976
RightHand  -1.43294 4.4498 -17.1371
LeftUpLeg  -1.31674 6.31466 2.65582
LeftLeg  6.64829 17.5717 -2.38175
LeftFoot  -5.06804 0.00682623 0.42497
LeftToes  1.06246e-005 4.65856e-005 -8.18505e-006
